<?xml version="1.0" encoding="UTF-8" standalone="no"?>
<!DOCTYPE svg PUBLIC "-//W3C//DTD SVG 1.1//EN" "http://www.w3.org/Graphics/SVG/1.1/DTD/svg11.dtd">
<svg width="100%" height="100%" viewBox="0 0 16 16" version="1.1" xmlns="http://www.w3.org/2000/svg" xmlns:xlink="http://www.w3.org/1999/xlink" xml:space="preserve" xmlns:serif="http://www.serif.com/" style="fill-rule:evenodd;clip-rule:evenodd;stroke-linejoin:round;stroke-miterlimit:2;">
    <rect id="ArtBoard1" x="0" y="0" width="16" height="16" style="fill:none;"/>
    <g id="ArtBoard11" serif:id="ArtBoard1">
        <g transform="matrix(1,0,0,1,4,0)">
            <path d="M2,4L6,4C7.105,4 8,4.895 8,6L8,8L0,8L0,6C0,4.895 0.895,4 2,4Z" style="fill:rgb(165,183,243);"/>
        </g>
        <g transform="matrix(1,0,0,1,4,8)">
            <path d="M0,0L8,0L8,2C8,3.105 7.105,4 6,4L2,4C0.895,4 0,3.105 0,2L0,0Z" style="fill:rgb(252,156,156);"/>
        </g>
    </g>
</svg>
