<svg clip-rule="evenodd" fill-rule="evenodd" stroke-linejoin="round" stroke-miterlimit="2" viewBox="0 0 16 16" xmlns="http://www.w3.org/2000/svg"><path d="m8 15c-3.863 0-7-3.137-7-7s3.137-7 7-7 7 3.137 7 7-3.137 7-7 7zm-.299-2.222c-.373 0-.676-.098-.91-.293s-.351-.488-.351-.877c0-.416.115-.718.344-.904.23-.186.536-.28.917-.28.364 0 .659.096.884.287.225.19.338.489.338.897 0 .381-.115.671-.344.87-.23.2-.523.3-.878.3zm-.962-3.823c0-.277.039-.528.117-.753.078-.226.204-.434.377-.625.173-.19.403-.381.689-.572.234-.156.418-.303.552-.442.135-.138.232-.279.293-.422s.091-.297.091-.462c0-.234-.085-.416-.253-.545-.169-.13-.393-.196-.67-.196-.303 0-.617.057-.942.17-.326.112-.705.281-1.138.506l-.78-1.547c.485-.277.971-.487 1.456-.63s1.005-.214 1.56-.214c.572 0 1.068.09 1.489.272.42.182.749.445.987.787.239.342.358.756.358 1.241 0 .356-.048.67-.143.943s-.247.522-.455.748c-.208.225-.481.455-.819.688-.208.148-.379.28-.514.397-.134.117-.229.238-.286.364-.056.126-.084.275-.084.449v.35h-1.885z" fill="#e7e7e7"/></svg>