<svg clip-rule="evenodd" fill-rule="evenodd" stroke-linejoin="round" stroke-miterlimit="2" viewBox="0 0 16 16" xmlns="http://www.w3.org/2000/svg"><path d="m7 4.415-1.293 1.292c-.36.361-.928.388-1.32.083l-.094-.083c-.391-.39-.391-1.024 0-1.414l3-3c.39-.391 1.024-.391 1.414 0l3 3c.391.39.391 1.024 0 1.414-.39.391-1.024.391-1.414 0l-1.293-1.292v7.17l1.293-1.292c.36-.361.928-.388 1.32-.083l.094.083c.391.39.391 1.024 0 1.414l-3 3c-.39.391-1.024.391-1.414 0l-3-3c-.391-.39-.391-1.024 0-1.414.39-.391 1.024-.391 1.414 0l1.293 1.292z" fill="#e7e7e7" fill-rule="nonzero"/></svg>